<mxfile host="app.diagrams.net" modified="2024-07-15T19:02:58.008Z" agent="Mozilla/5.0 (Windows NT 10.0; Win64; x64) AppleWebKit/537.36 (KHTML, like Gecko) Chrome/126.0.0.0 Safari/537.36" etag="82GD01u6jBegizHdaDCI" version="24.6.5" type="device">
  <diagram name="Page-1" id="wR6ZHstSn_aNotOZ4V6f">
    <mxGraphModel dx="1500" dy="796" grid="1" gridSize="10" guides="1" tooltips="1" connect="1" arrows="1" fold="1" page="1" pageScale="1" pageWidth="850" pageHeight="1100" math="0" shadow="0">
      <root>
        <mxCell id="0" />
        <mxCell id="1" parent="0" />
        <mxCell id="anQrSzxMyg6n89FaQcpy-1" value="&lt;font style=&quot;font-size: 16px;&quot;&gt;Postpartum Depression Analysis Data&lt;/font&gt;" style="rounded=0;whiteSpace=wrap;html=1;" parent="1" vertex="1">
          <mxGeometry x="360" y="160" width="310" height="60" as="geometry" />
        </mxCell>
        <mxCell id="anQrSzxMyg6n89FaQcpy-2" value="&lt;font style=&quot;font-size: 16px;&quot;&gt;Data preprocessing&lt;/font&gt;" style="rounded=0;whiteSpace=wrap;html=1;" parent="1" vertex="1">
          <mxGeometry x="360" y="260" width="310" height="60" as="geometry" />
        </mxCell>
        <mxCell id="anQrSzxMyg6n89FaQcpy-3" value="&lt;font style=&quot;font-size: 16px;&quot;&gt;Feature selection and separating target variable&lt;/font&gt;" style="rounded=0;whiteSpace=wrap;html=1;" parent="1" vertex="1">
          <mxGeometry x="360" y="360" width="310" height="60" as="geometry" />
        </mxCell>
        <mxCell id="anQrSzxMyg6n89FaQcpy-5" value="&lt;font style=&quot;font-size: 16px;&quot;&gt;Analysis using different model&lt;/font&gt;" style="rounded=0;whiteSpace=wrap;html=1;" parent="1" vertex="1">
          <mxGeometry x="360" y="460" width="310" height="60" as="geometry" />
        </mxCell>
        <mxCell id="anQrSzxMyg6n89FaQcpy-6" value="&lt;font style=&quot;font-size: 16px;&quot;&gt;Performance evaluation&lt;/font&gt;" style="rounded=0;whiteSpace=wrap;html=1;" parent="1" vertex="1">
          <mxGeometry x="360" y="760" width="310" height="60" as="geometry" />
        </mxCell>
        <mxCell id="anQrSzxMyg6n89FaQcpy-7" value="&lt;ul&gt;&lt;li&gt;&lt;span style=&quot;font-size: 16px;&quot;&gt;Data Cleaning&lt;/span&gt;&lt;/li&gt;&lt;li&gt;&lt;span style=&quot;font-size: 16px;&quot;&gt;Data Mapping&lt;/span&gt;&lt;/li&gt;&lt;li&gt;&lt;span style=&quot;font-size: 16px;&quot;&gt;Data Exploration&lt;/span&gt;&lt;/li&gt;&lt;/ul&gt;" style="rounded=1;whiteSpace=wrap;html=1;align=center;" parent="1" vertex="1">
          <mxGeometry x="80" y="180" width="200" height="100" as="geometry" />
        </mxCell>
        <mxCell id="anQrSzxMyg6n89FaQcpy-9" value="" style="endArrow=classic;html=1;rounded=0;entryX=0;entryY=0.5;entryDx=0;entryDy=0;exitX=1;exitY=0.5;exitDx=0;exitDy=0;" parent="1" source="anQrSzxMyg6n89FaQcpy-7" target="anQrSzxMyg6n89FaQcpy-2" edge="1">
          <mxGeometry width="50" height="50" relative="1" as="geometry">
            <mxPoint x="180" y="420" as="sourcePoint" />
            <mxPoint x="230" y="370" as="targetPoint" />
          </mxGeometry>
        </mxCell>
        <mxCell id="anQrSzxMyg6n89FaQcpy-10" value="&lt;font style=&quot;font-size: 16px;&quot;&gt;Prediction of Suicide Attempt&lt;/font&gt;" style="ellipse;whiteSpace=wrap;html=1;" parent="1" vertex="1">
          <mxGeometry x="430" y="600" width="170" height="100" as="geometry" />
        </mxCell>
        <mxCell id="anQrSzxMyg6n89FaQcpy-12" value="" style="endArrow=classic;html=1;rounded=0;exitX=0.5;exitY=1;exitDx=0;exitDy=0;entryX=0.5;entryY=0;entryDx=0;entryDy=0;" parent="1" source="anQrSzxMyg6n89FaQcpy-5" target="anQrSzxMyg6n89FaQcpy-10" edge="1">
          <mxGeometry width="50" height="50" relative="1" as="geometry">
            <mxPoint x="400" y="610" as="sourcePoint" />
            <mxPoint x="470" y="580" as="targetPoint" />
          </mxGeometry>
        </mxCell>
        <mxCell id="anQrSzxMyg6n89FaQcpy-14" value="" style="shape=flexArrow;endArrow=classic;html=1;rounded=0;exitX=0.5;exitY=1;exitDx=0;exitDy=0;entryX=0.5;entryY=0;entryDx=0;entryDy=0;" parent="1" source="anQrSzxMyg6n89FaQcpy-10" target="anQrSzxMyg6n89FaQcpy-6" edge="1">
          <mxGeometry width="50" height="50" relative="1" as="geometry">
            <mxPoint x="400" y="780" as="sourcePoint" />
            <mxPoint x="250" y="720" as="targetPoint" />
          </mxGeometry>
        </mxCell>
        <mxCell id="anQrSzxMyg6n89FaQcpy-18" value="" style="endArrow=none;dashed=1;html=1;rounded=0;" parent="1" edge="1">
          <mxGeometry width="50" height="50" relative="1" as="geometry">
            <mxPoint x="260" y="840" as="sourcePoint" />
            <mxPoint x="260" y="320" as="targetPoint" />
          </mxGeometry>
        </mxCell>
        <mxCell id="anQrSzxMyg6n89FaQcpy-19" value="" style="endArrow=none;dashed=1;html=1;rounded=0;" parent="1" edge="1">
          <mxGeometry width="50" height="50" relative="1" as="geometry">
            <mxPoint x="720" y="840" as="sourcePoint" />
            <mxPoint x="260" y="840" as="targetPoint" />
          </mxGeometry>
        </mxCell>
        <mxCell id="anQrSzxMyg6n89FaQcpy-20" value="" style="endArrow=none;dashed=1;html=1;rounded=0;" parent="1" edge="1">
          <mxGeometry width="50" height="50" relative="1" as="geometry">
            <mxPoint x="720" y="840" as="sourcePoint" />
            <mxPoint x="720" y="320" as="targetPoint" />
          </mxGeometry>
        </mxCell>
        <mxCell id="anQrSzxMyg6n89FaQcpy-21" value="" style="endArrow=none;dashed=1;html=1;rounded=0;" parent="1" edge="1">
          <mxGeometry width="50" height="50" relative="1" as="geometry">
            <mxPoint x="720" y="320" as="sourcePoint" />
            <mxPoint x="260" y="320" as="targetPoint" />
          </mxGeometry>
        </mxCell>
        <mxCell id="anQrSzxMyg6n89FaQcpy-22" value="" style="shape=flexArrow;endArrow=classic;html=1;rounded=0;exitX=0.5;exitY=1;exitDx=0;exitDy=0;" parent="1" source="anQrSzxMyg6n89FaQcpy-1" target="anQrSzxMyg6n89FaQcpy-2" edge="1">
          <mxGeometry width="50" height="50" relative="1" as="geometry">
            <mxPoint x="400" y="330" as="sourcePoint" />
            <mxPoint x="450" y="280" as="targetPoint" />
          </mxGeometry>
        </mxCell>
        <mxCell id="anQrSzxMyg6n89FaQcpy-23" value="" style="shape=flexArrow;endArrow=classic;html=1;rounded=0;exitX=0.5;exitY=1;exitDx=0;exitDy=0;" parent="1" edge="1">
          <mxGeometry width="50" height="50" relative="1" as="geometry">
            <mxPoint x="514.5" y="320" as="sourcePoint" />
            <mxPoint x="514.5" y="360" as="targetPoint" />
          </mxGeometry>
        </mxCell>
        <mxCell id="anQrSzxMyg6n89FaQcpy-27" value="" style="shape=flexArrow;endArrow=classic;html=1;rounded=0;exitX=0.5;exitY=1;exitDx=0;exitDy=0;" parent="1" edge="1">
          <mxGeometry width="50" height="50" relative="1" as="geometry">
            <mxPoint x="514.5" y="420" as="sourcePoint" />
            <mxPoint x="514.5" y="460" as="targetPoint" />
          </mxGeometry>
        </mxCell>
        <mxCell id="anQrSzxMyg6n89FaQcpy-32" value="&lt;font style=&quot;font-size: 16px;&quot;&gt;&lt;b&gt;Proposed Model Paradigms&lt;/b&gt;&lt;/font&gt;" style="text;html=1;align=center;verticalAlign=middle;resizable=0;points=[];autosize=1;strokeColor=none;fillColor=none;rotation=-90;" parent="1" vertex="1">
          <mxGeometry x="190" y="550" width="230" height="30" as="geometry" />
        </mxCell>
      </root>
    </mxGraphModel>
  </diagram>
</mxfile>
